<?xml version="1.0" standalone="no"?>
<!DOCTYPE svg PUBLIC "-//W3C//DTD SVG 20010904//EN"
 "http://www.w3.org/TR/2001/REC-SVG-20010904/DTD/svg10.dtd">
<svg version="1.0" xmlns="http://www.w3.org/2000/svg"
 width="252.000000pt" height="252.000000pt" viewBox="0 0 252.000000 252.000000"
 preserveAspectRatio="xMidYMid meet">
<metadata>
Created by potrace 1.14, written by Peter Selinger 2001-2017
</metadata>
<g transform="translate(0.000000,252.000000) scale(0.100000,-0.100000)"
fill="#000000" stroke="none">
<path d="M15 2031 c0 -16 3 -27 6 -25 4 2 13 -4 20 -13 12 -14 12 -16 -1 -8
-8 5 -2 -4 13 -20 21 -21 24 -30 15 -37 -12 -7 -4 -12 16 -9 5 1 6 -7 3 -18
-3 -15 -1 -18 11 -14 10 4 13 2 8 -5 -4 -7 -3 -12 2 -12 6 0 8 -10 5 -22 -4
-19 -3 -20 6 -8 9 12 11 11 11 -7 0 -13 5 -23 11 -23 6 0 9 -9 6 -19 -3 -13 0
-18 8 -15 7 3 16 0 21 -7 5 -8 3 -10 -7 -5 -8 4 -6 1 3 -7 10 -8 14 -18 10
-22 -4 -5 -1 -5 6 -1 7 4 19 2 27 -4 12 -10 15 -10 15 1 1 9 5 8 15 -5 15 -20
15 -20 15 0 0 16 2 17 10 4 7 -11 10 -11 10 -2 0 10 5 10 22 1 15 -8 23 -9 26
-1 2 7 13 7 33 2 16 -5 29 -5 29 0 0 5 13 5 30 0 19 -5 30 -5 30 1 0 6 8 5 20
-1 12 -6 20 -7 20 -1 0 6 11 6 30 1 16 -5 30 -5 30 -1 0 9 67 7 76 -2 3 -3 17
-2 31 4 13 5 22 5 19 0 -3 -5 1 -11 9 -14 8 -4 12 -1 9 6 -2 7 5 12 20 12 13
0 22 -3 19 -7 -2 -5 1 -8 6 -8 6 0 11 3 11 8 0 4 11 7 24 7 13 0 22 -3 19 -7
-2 -5 1 -8 6 -8 6 0 11 4 11 9 0 6 12 6 30 1 17 -5 30 -5 30 -1 0 9 48 6 57
-4 5 -4 2 -5 -6 0 -10 6 -12 4 -6 -5 6 -10 11 -9 22 5 7 11 13 15 13 9 0 -5
48 -9 110 -9 61 0 110 3 110 7 0 4 13 3 30 -2 17 -5 30 -5 30 0 0 5 13 5 30 0
17 -5 30 -5 30 0 0 5 13 5 30 0 16 -5 30 -5 30 -1 0 4 19 5 41 2 23 -3 95 -4
159 -1 65 3 116 2 113 -2 -2 -5 0 -8 6 -8 5 0 11 5 13 11 3 8 10 6 21 -5 9
-10 17 -13 17 -7 0 6 11 11 25 11 14 0 25 -6 25 -12 0 -9 4 -8 10 2 8 12 11
13 19 1 7 -11 9 -11 14 0 4 11 7 12 18 2 7 -7 23 -13 35 -13 12 0 27 -7 34
-15 7 -8 16 -13 20 -10 4 3 13 -2 20 -11 7 -8 19 -13 27 -10 8 3 11 1 8 -4 -3
-6 1 -10 9 -10 8 0 18 -5 22 -12 5 -7 3 -8 -6 -3 -8 5 -11 4 -6 -3 4 -6 14 -8
23 -5 11 4 14 3 9 -5 -4 -7 -1 -12 9 -12 9 0 13 -4 10 -10 -3 -5 1 -10 9 -10
8 0 18 -9 21 -20 3 -11 15 -24 25 -30 10 -5 21 -23 25 -40 4 -16 10 -30 13
-30 4 0 12 -11 19 -25 6 -14 7 -23 2 -19 -5 3 -9 0 -9 -5 0 -6 7 -11 15 -11 9
0 12 -6 8 -16 -3 -9 0 -20 7 -24 11 -7 11 -11 1 -24 -8 -9 -9 -16 -4 -16 6 0
11 -22 12 -50 0 -29 -4 -50 -10 -50 -5 0 -7 -5 -4 -10 4 -6 11 -8 16 -5 5 3 6
-1 3 -9 -3 -9 -11 -13 -16 -10 -6 4 -5 -2 1 -14 8 -15 8 -23 0 -27 -6 -4 -8
-13 -5 -21 3 -9 -1 -14 -12 -15 -11 0 -12 -2 -4 -6 10 -4 10 -8 0 -21 -11 -13
-11 -15 2 -8 8 4 4 -2 -10 -14 -14 -12 -18 -18 -10 -14 13 7 13 6 0 -12 -8
-10 -22 -25 -30 -32 -13 -12 -13 -13 0 -7 10 4 9 2 -2 -8 -10 -8 -14 -18 -10
-22 4 -5 -1 -5 -10 -2 -12 4 -15 2 -11 -9 3 -8 -1 -14 -11 -14 -10 0 -13 -6
-9 -15 3 -9 1 -15 -4 -13 -6 2 -19 -6 -29 -17 -11 -12 -17 -16 -14 -10 3 6 -4
1 -15 -12 -21 -24 -42 -32 -29 -11 4 7 3 8 -5 4 -6 -4 -9 -12 -6 -17 6 -8 -8
-13 -28 -10 -4 1 -10 -6 -13 -14 -4 -8 -10 -15 -16 -15 -5 0 -6 6 -2 13 6 8 3
8 -9 -1 -9 -8 -22 -10 -28 -6 -7 4 -9 3 -6 -3 9 -14 -13 -22 -47 -19 -14 2
-26 0 -26 -5 0 -4 -27 -7 -59 -7 -39 1 -58 5 -55 12 3 6 -1 3 -9 -7 -11 -14
-16 -15 -20 -5 -4 10 -6 10 -6 -1 -1 -11 -5 -10 -16 5 -9 10 -14 13 -13 5 2
-7 -3 -16 -11 -19 -8 -2 -11 0 -7 6 3 6 1 14 -6 18 -7 4 -10 4 -6 -1 4 -4 1
-17 -7 -27 -7 -11 -11 -27 -8 -36 4 -8 2 -13 -3 -10 -5 4 -9 -9 -9 -27 0 -18
3 -31 7 -29 11 7 10 -8 -1 -25 -6 -9 -5 -23 1 -37 8 -17 8 -27 -1 -38 -8 -9
-8 -16 -2 -20 5 -4 8 -16 6 -28 -3 -12 1 -26 8 -30 9 -6 9 -8 -1 -8 -10 0 -10
-3 0 -14 9 -10 15 -11 20 -2 6 8 8 8 8 -1 0 -14 207 -16 216 -2 3 5 11 6 17 2
17 -10 47 -11 53 -2 2 5 12 5 21 2 9 -4 14 -2 10 3 -3 6 3 11 14 11 12 1 17
-3 13 -10 -3 -7 2 -3 10 7 9 11 16 16 16 12 0 -5 8 -2 17 5 9 8 14 9 10 2 -11
-18 24 -9 38 10 7 9 15 14 18 10 4 -3 7 -1 7 7 0 10 3 10 18 -1 9 -7 14 -10
10 -5 -4 5 -1 15 7 22 17 17 28 18 20 2 -4 -7 3 -3 14 10 12 14 26 21 33 16 7
-4 10 -4 6 1 -10 11 29 38 42 30 6 -4 7 1 3 12 -6 16 -5 17 12 3 10 -8 16 -10
12 -4 -4 6 5 24 19 40 19 22 23 24 19 9 -6 -20 -6 -20 6 -1 7 11 23 30 36 42
14 12 25 26 26 31 1 4 7 7 14 7 6 -1 10 7 8 18 -3 13 2 22 15 25 11 3 18 9 15
13 -3 4 2 13 10 20 8 7 12 16 9 21 -3 5 0 9 5 9 6 0 11 -5 11 -12 0 -6 3 -8 6
-5 4 4 2 12 -4 19 -11 14 10 43 22 30 4 -3 4 2 0 12 -6 15 -4 17 7 11 11 -6
12 -5 2 5 -10 11 -10 17 3 31 8 9 17 26 19 36 1 10 9 17 16 15 10 -3 11 0 3 8
-8 8 -7 22 5 53 12 32 16 83 17 210 1 99 -2 167 -7 167 -6 0 -5 8 1 20 6 11 7
20 3 19 -20 -3 -24 2 -13 16 10 12 9 16 -3 21 -9 3 -18 13 -21 21 -6 14 -4 14
11 2 10 -7 7 0 -7 15 -14 16 -19 26 -13 22 17 -10 16 -1 -2 17 -8 8 -16 21
-17 28 -2 8 -10 20 -18 27 -8 8 -9 11 -3 7 9 -4 11 -1 7 9 -3 9 -12 16 -20 16
-8 0 -14 5 -14 11 0 5 6 7 13 4 6 -4 1 3 -13 15 -14 12 -18 19 -10 15 8 -4 3
3 -12 15 -16 12 -28 28 -28 35 0 8 -9 19 -20 25 -11 6 -20 17 -20 25 0 8 -6
14 -13 13 -6 -2 -11 3 -9 10 1 6 -4 11 -10 10 -7 -2 -12 5 -12 14 1 10 -2 15
-7 13 -11 -8 -49 17 -49 31 0 8 -9 10 -22 6 -20 -5 -21 -3 -11 10 10 12 10 15
-2 16 -8 1 -22 3 -30 4 -8 1 -15 8 -15 17 0 13 -2 13 -9 2 -7 -11 -10 -9 -16
8 -3 11 -11 21 -16 21 -6 0 -7 -5 -3 -12 4 -7 3 -8 -4 -4 -7 4 -12 15 -12 24
0 15 -2 15 -10 2 -7 -12 -12 -12 -22 -2 -6 6 -20 12 -29 12 -9 0 -20 7 -23 15
-4 13 -10 14 -26 5 -15 -8 -20 -8 -18 1 2 6 -10 14 -27 16 -16 3 -451 7 -965
9 l-936 4 1 -29z m2005 -1515 c0 -3 -4 -8 -10 -11 -5 -3 -10 -1 -10 4 0 6 5
11 10 11 6 0 10 -2 10 -4z"/>
<path d="M535 1441 c-12 -11 -125 -19 -118 -8 2 4 -1 7 -6 7 -6 0 -11 -5 -11
-11 0 -5 -4 -8 -9 -5 -5 3 -11 -1 -15 -9 -3 -8 -1 -17 5 -20 5 -4 7 -11 4 -16
-4 -5 -1 -9 4 -9 6 0 10 -6 9 -12 -2 -7 3 -12 11 -10 8 2 11 -3 8 -13 -4 -8
-2 -15 4 -15 6 0 7 -5 4 -10 -3 -6 1 -13 10 -16 13 -6 14 -8 3 -15 -10 -7 -11
-9 0 -9 7 0 10 -5 6 -12 -4 -7 -3 -8 5 -4 6 4 14 0 18 -11 4 -10 11 -21 17
-25 7 -5 6 -8 -4 -8 -10 0 -7 -5 8 -16 12 -8 26 -24 32 -34 9 -16 8 -19 -7
-14 -11 3 -8 0 5 -8 12 -8 19 -17 16 -21 -4 -4 -1 -7 6 -7 7 0 22 -7 32 -17
10 -9 18 -11 18 -5 0 7 10 8 30 2 17 -5 30 -6 30 -2 0 4 11 7 24 7 19 0 22 -3
14 -13 -8 -9 -7 -11 6 -6 9 3 16 10 16 16 0 5 5 6 10 3 6 -4 49 -6 96 -6 65 0
83 -2 78 -12 -6 -9 -5 -9 7 0 12 10 14 7 15 -18 1 -16 -3 -26 -8 -23 -6 4 -5
-3 1 -14 14 -26 14 -35 0 -26 -8 5 -8 1 0 -14 8 -15 8 -23 0 -28 -8 -4 -8 -9
0 -17 14 -14 14 -30 0 -21 -8 5 -8 1 0 -14 8 -14 8 -23 1 -27 -8 -5 -8 -11 -1
-19 6 -7 8 -16 4 -19 -3 -4 -1 -7 6 -7 7 0 9 -5 6 -10 -4 -6 -10 -8 -14 -6 -7
5 -6 -30 4 -77 4 -20 2 -26 -6 -22 -8 6 -8 2 0 -13 6 -11 11 -23 11 -27 0 -3
-5 -3 -11 1 -8 5 -8 1 0 -14 7 -13 8 -23 1 -27 -6 -4 -5 -13 2 -25 9 -14 9
-22 -3 -36 -8 -10 -9 -15 -2 -11 9 6 11 -1 8 -25 -2 -18 1 -39 8 -47 10 -12 9
-13 -3 -6 -12 7 -13 6 -2 -6 16 -17 337 -26 327 -9 -3 6 0 10 7 10 9 0 9 3 -2
10 -8 5 -10 10 -3 10 6 0 9 9 5 22 -4 15 -2 19 7 13 7 -4 5 5 -5 21 -11 15
-13 25 -6 20 10 -6 11 -1 6 20 -5 20 -4 25 5 19 9 -5 9 -2 0 13 -11 17 -10 24
2 38 8 10 9 15 3 11 -7 -4 -15 0 -18 9 -3 9 -2 12 5 9 6 -4 7 3 3 21 -5 20 -4
25 5 19 9 -5 9 -2 0 13 -11 17 -10 24 2 38 8 10 9 15 3 11 -7 -4 -15 0 -18 9
-4 10 -2 13 6 8 7 -5 9 -2 5 8 -3 9 0 21 6 28 9 10 9 12 -4 7 -12 -4 -15 0
-11 19 2 13 9 21 14 18 6 -4 2 6 -8 22 -13 19 -14 25 -5 19 11 -6 13 -4 8 8
-3 9 -2 19 4 23 6 4 6 11 -2 20 -6 7 -9 20 -6 29 4 8 2 17 -4 21 -6 3 -3 11 8
20 12 9 13 13 5 14 -26 0 -3 16 28 18 23 2 30 -1 25 -10 -4 -7 -1 -6 7 3 9 11
21 13 41 8 15 -4 27 -3 27 1 0 5 14 5 30 0 17 -5 30 -5 30 0 0 10 40 1 58 -13
9 -7 11 -6 7 5 -5 11 1 14 24 10 19 -2 29 -9 25 -16 -3 -6 2 -2 10 8 9 11 16
15 16 10 0 -6 12 -9 28 -8 102 11 121 11 115 0 -4 -7 -1 -6 9 1 8 7 18 10 21
6 4 -3 7 -1 7 6 0 7 5 9 10 6 6 -3 10 -1 10 5 0 6 5 8 10 5 6 -3 10 -1 10 5 0
7 7 9 16 6 8 -3 13 -2 10 3 -3 5 5 20 19 35 13 14 21 26 18 26 -4 0 -2 5 4 11
6 6 9 18 6 27 -4 10 -2 13 5 8 7 -4 12 -2 12 3 0 6 -6 11 -12 12 -7 0 -4 4 7
9 l20 9 -20 0 c-15 1 -17 3 -6 10 10 7 11 9 1 13 -13 4 -18 20 -23 64 -1 14
-7 19 -18 17 -9 -3 -20 1 -24 8 -5 8 -4 10 3 5 8 -5 10 -2 6 8 -3 9 -9 15 -12
14 -22 -2 -42 3 -38 11 3 4 -2 8 -12 8 -78 0 -106 4 -92 13 9 6 10 10 3 10 -7
0 -17 -8 -22 -17 -6 -10 -11 -13 -11 -7 0 6 -13 9 -30 6 -17 -2 -37 1 -45 8
-13 11 -14 10 -10 -2 5 -12 -1 -14 -27 -10 -18 2 -39 9 -46 15 -9 7 -11 6 -6
-8 5 -12 4 -16 -4 -11 -6 4 -57 7 -112 7 -75 0 -99 3 -95 12 4 7 -1 3 -9 -7
-9 -11 -16 -16 -16 -10 0 5 -33 8 -72 7 -40 -1 -79 3 -86 9 -9 8 -11 7 -7 -4
5 -12 -1 -14 -27 -10 -18 2 -39 9 -46 15 -9 7 -11 6 -7 -4 4 -11 -8 -13 -65
-11 -49 3 -68 7 -64 15 3 7 -2 3 -10 -7 -9 -11 -16 -16 -16 -10 0 5 -31 8 -71
6 -57 -3 -70 -1 -64 10 3 7 -1 4 -9 -6 -9 -11 -16 -15 -16 -10 0 6 -13 9 -30
6 -17 -2 -37 1 -45 8 -13 11 -14 10 -8 -6 7 -18 6 -18 -20 -1 -24 15 -26 15
-20 1 4 -12 2 -15 -8 -12 -8 3 -13 11 -11 17 3 13 -1 14 -13 2z"/>
</g>
</svg>
